<svg width="658.9px" height="135.2px" xmlns="http://www.w3.org/2000/svg" viewBox="-79.42500000000001 7.400000000000006 658.85 135.2" style="background: rgba(0, 0, 0, 0)" preserveAspectRatio="xMidYMid"><defs><linearGradient id="editing-gradient-gradient" x1="0" x2="1" y1="0.5" y2="0.5" gradientUnits="objectBoundingBox"><stop offset="0" stop-color="#ff00ff"></stop><stop offset="1" stop-color="#00ffff"></stop></linearGradient></defs><g transform="matrix(1,0,0,1,0,0)"><g transform="matrix(1.4,0,0,1.8,-88.2,205.6)"><path d="M 9.8 -57.8 L 9.8 -102.3 L 15.5 -102.3 L 15.5 -57.8 L 9.8 -57.8 Z M 66.4 -92 L 66.4 -92 Q 71.1 -92 73.5 -89.1 L 73.5 -89.1 L 73.5 -89.1 Q 76 -86.1 76 -81 L 76 -81 L 76 -57.8 L 70.3 -57.8 L 70.3 -80.2 L 70.3 -80.2 Q 70.3 -83.4 69 -85.2 L 69 -85.2 L 69 -85.2 Q 67.6 -86.9 64.9 -86.9 L 64.9 -86.9 L 64.9 -86.9 Q 62.1 -86.9 60.1 -85.9 L 60.1 -85.9 L 60.1 -85.9 Q 58.2 -84.9 55.7 -82.6 L 55.7 -82.6 L 55.7 -82.6 Q 55.8 -82.1 55.8 -81 L 55.8 -81 L 55.8 -57.8 L 50.2 -57.8 L 50.2 -80.2 L 50.2 -80.2 Q 50.2 -83.4 48.8 -85.2 L 48.8 -85.2 L 48.8 -85.2 Q 47.5 -86.9 44.7 -86.9 L 44.7 -86.9 L 44.7 -86.9 Q 41.9 -86.9 40 -85.9 L 40 -85.9 L 40 -85.9 Q 38.1 -84.9 35.6 -82.6 L 35.6 -82.6 L 35.6 -57.8 L 30 -57.8 L 30 -83.8 L 28.6 -91.2 L 34.2 -91.2 L 35.1 -86.6 L 35.1 -86.6 Q 38 -89.5 40.3 -90.7 L 40.3 -90.7 L 40.3 -90.7 Q 42.7 -92 46.2 -92 L 46.2 -92 L 46.2 -92 Q 49.5 -92 51.7 -90.5 L 51.7 -90.5 L 51.7 -90.5 Q 53.9 -89 55 -86.3 L 55 -86.3 L 55 -86.3 Q 58 -89.3 60.4 -90.7 L 60.4 -90.7 L 60.4 -90.7 Q 62.8 -92 66.4 -92 L 66.4 -92 Z M 115.9 -57.8 L 110.3 -57.8 L 109.4 -62.6 L 109.4 -62.6 Q 106.9 -59.8 104 -58.4 L 104 -58.4 L 104 -58.4 Q 101 -57 97.4 -57 L 97.4 -57 L 97.4 -57 Q 92.8 -57 90 -59.6 L 90 -59.6 L 90 -59.6 Q 87.2 -62.2 87.2 -66.5 L 87.2 -66.5 L 87.2 -66.5 Q 87.2 -72.1 91.7 -74.7 L 91.7 -74.7 L 91.7 -74.7 Q 96.2 -77.3 103.2 -77.3 L 103.2 -77.3 L 103.2 -77.3 Q 105.8 -77.3 108.8 -77 L 108.8 -77 L 108.8 -79.3 L 108.8 -79.3 Q 108.8 -82.8 107 -84.8 L 107 -84.8 L 107 -84.8 Q 105.1 -86.9 102.1 -86.9 L 102.1 -86.9 L 102.1 -86.9 Q 98.5 -86.9 95.6 -86 L 95.6 -86 L 95.6 -86 Q 92.7 -85 89.6 -82.9 L 89.6 -82.9 L 89.6 -88.4 L 89.6 -88.4 Q 92.6 -90.4 95.7 -91.2 L 95.7 -91.2 L 95.7 -91.2 Q 98.9 -92 102.9 -92 L 102.9 -92 L 102.9 -92 Q 108 -92 111.2 -88.7 L 111.2 -88.7 L 111.2 -88.7 Q 114.5 -85.4 114.5 -80.1 L 114.5 -80.1 L 114.5 -65.2 L 115.9 -57.8 Z M 98.5 -61.8 L 98.5 -61.8 Q 101.6 -61.8 104 -63 L 104 -63 L 104 -63 Q 106.5 -64.3 108.8 -66.8 L 108.8 -66.8 L 108.8 -73 L 103 -73 L 103 -73 Q 93.3 -73 93.3 -66.8 L 93.3 -66.8 L 93.3 -66.8 Q 93.3 -64.5 94.8 -63.1 L 94.8 -63.1 L 94.8 -63.1 Q 96.2 -61.8 98.5 -61.8 L 98.5 -61.8 Z M 149.7 -91.3 L 155.4 -91.3 L 154 -83.8 L 154 -60 L 154 -60 Q 154 -51.5 150.1 -46.9 L 150.1 -46.9 L 150.1 -46.9 Q 146.2 -42.2 138.5 -42.2 L 138.5 -42.2 L 138.5 -42.2 Q 134.2 -42.2 131.4 -43 L 131.4 -43 L 131.4 -43 Q 128.7 -43.8 125.7 -46.3 L 125.7 -46.3 L 125.7 -52 L 125.7 -52 Q 128.9 -49.4 131.6 -48.4 L 131.6 -48.4 L 131.6 -48.4 Q 134.4 -47.4 138.5 -47.4 L 138.5 -47.4 L 138.5 -47.4 Q 143.4 -47.4 145.9 -50.5 L 145.9 -50.5 L 145.9 -50.5 Q 148.3 -53.6 148.3 -59.2 L 148.3 -59.2 L 148.3 -60.9 L 148.3 -60.9 Q 146.2 -59.5 144.1 -58.9 L 144.1 -58.9 L 144.1 -58.9 Q 141.9 -58.2 139 -58.2 L 139 -58.2 L 139 -58.2 Q 131.8 -58.2 128.1 -62.6 L 128.1 -62.6 L 128.1 -62.6 Q 124.4 -66.9 124.4 -74.8 L 124.4 -74.8 L 124.4 -74.8 Q 124.4 -82.9 128.2 -87.5 L 128.2 -87.5 L 128.2 -87.5 Q 132.1 -92 139.6 -92 L 139.6 -92 L 139.6 -92 Q 142.4 -92 144.4 -91.4 L 144.4 -91.4 L 144.4 -91.4 Q 146.4 -90.9 149.3 -89.6 L 149.3 -89.6 L 149.7 -91.3 Z M 139.1 -63.4 L 139.1 -63.4 Q 141.9 -63.4 144 -64.1 L 144 -64.1 L 144 -64.1 Q 146.1 -64.8 148.3 -66.4 L 148.3 -66.4 L 148.3 -85.7 L 148.3 -85.7 Q 146.3 -86.4 144.5 -86.7 L 144.5 -86.7 L 144.5 -86.7 Q 142.6 -87 140.3 -87 L 140.3 -87 L 140.3 -87 Q 135.3 -87 132.9 -83.8 L 132.9 -83.8 L 132.9 -83.8 Q 130.5 -80.6 130.5 -74.9 L 130.5 -74.9 L 130.5 -74.9 Q 130.5 -63.4 139.1 -63.4 L 139.1 -63.4 Z M 193.9 -74.5 L 193.9 -72.6 L 170.2 -72.6 L 170.2 -72.6 Q 170.7 -67.7 173.5 -64.8 L 173.5 -64.8 L 173.5 -64.8 Q 176.3 -61.9 181.1 -61.9 L 181.1 -61.9 L 181.1 -61.9 Q 184 -61.9 186.7 -63.1 L 186.7 -63.1 L 186.7 -63.1 Q 189.4 -64.3 192.2 -66.6 L 192.2 -66.6 L 192.5 -66.6 L 192.5 -60.9 L 192.5 -60.9 Q 189.7 -58.9 186.9 -58 L 186.9 -58 L 186.9 -58 Q 184.2 -57 181 -57 L 181 -57 L 181 -57 Q 175.9 -57 172.1 -59.3 L 172.1 -59.3 L 172.1 -59.3 Q 168.4 -61.5 166.4 -65.5 L 166.4 -65.5 L 166.4 -65.5 Q 164.3 -69.5 164.3 -74.7 L 164.3 -74.7 L 164.3 -74.7 Q 164.3 -79.6 166.2 -83.6 L 166.2 -83.6 L 166.2 -83.6 Q 168 -87.5 171.4 -89.7 L 171.4 -89.7 L 171.4 -89.7 Q 174.8 -92 179.3 -92 L 179.3 -92 L 179.3 -92 Q 183.9 -92 187.2 -89.7 L 187.2 -89.7 L 187.2 -89.7 Q 190.5 -87.4 192.2 -83.5 L 192.2 -83.5 L 192.2 -83.5 Q 193.9 -79.5 193.9 -74.5 L 193.9 -74.5 Z M 179.4 -87.3 L 179.4 -87.3 Q 175.4 -87.3 173 -84.4 L 173 -84.4 L 173 -84.4 Q 170.7 -81.5 170.2 -77 L 170.2 -77 L 188.1 -77 L 188.1 -77 Q 187.6 -81.7 185.5 -84.5 L 185.5 -84.5 L 185.5 -84.5 Q 183.3 -87.3 179.4 -87.3 L 179.4 -87.3 Z M 213.6 -57 L 213.6 -57 Q 210.5 -57 207.6 -58 L 207.6 -58 L 207.6 -58 Q 204.6 -58.9 202 -60.6 L 202 -60.6 L 202 -66.5 L 202 -66.5 Q 207.8 -62 213.5 -62 L 213.5 -62 L 213.5 -62 Q 216.8 -62 218.9 -63.4 L 218.9 -63.4 L 218.9 -63.4 Q 220.9 -64.8 220.9 -67.1 L 220.9 -67.1 L 220.9 -67.1 Q 220.9 -68.7 219.9 -69.7 L 219.9 -69.7 L 219.9 -69.7 Q 218.9 -70.7 217.5 -71.3 L 217.5 -71.3 L 217.5 -71.3 Q 216 -71.9 213.2 -72.7 L 213.2 -72.7 L 213.2 -72.7 Q 209.8 -73.7 207.6 -74.6 L 207.6 -74.6 L 207.6 -74.6 Q 205.4 -75.5 203.9 -77.3 L 203.9 -77.3 L 203.9 -77.3 Q 202.4 -79.2 202.4 -82.1 L 202.4 -82.1 L 202.4 -82.1 Q 202.4 -86.6 205.7 -89.3 L 205.7 -89.3 L 205.7 -89.3 Q 209.1 -92 214.6 -92 L 214.6 -92 L 214.6 -92 Q 220.1 -92 224.6 -89.1 L 224.6 -89.1 L 224.6 -83.4 L 224.6 -83.4 Q 222.1 -85.3 219.8 -86.1 L 219.8 -86.1 L 219.8 -86.1 Q 217.5 -87 214.9 -87 L 214.9 -87 L 214.9 -87 Q 211.7 -87 209.8 -85.8 L 209.8 -85.8 L 209.8 -85.8 Q 208 -84.7 208 -82.6 L 208 -82.6 L 208 -82.6 Q 208 -81.2 209 -80.2 L 209 -80.2 L 209 -80.2 Q 210 -79.2 211.4 -78.7 L 211.4 -78.7 L 211.4 -78.7 Q 212.9 -78.1 215.7 -77.3 L 215.7 -77.3 L 215.7 -77.3 Q 219.1 -76.2 221.3 -75.3 L 221.3 -75.3 L 221.3 -75.3 Q 223.5 -74.4 225 -72.5 L 225 -72.5 L 225 -72.5 Q 226.5 -70.6 226.5 -67.6 L 226.5 -67.6 L 226.5 -67.6 Q 226.5 -64.5 224.9 -62.1 L 224.9 -62.1 L 224.9 -62.1 Q 223.2 -59.7 220.3 -58.4 L 220.3 -58.4 L 220.3 -58.4 Q 217.3 -57 213.6 -57 L 213.6 -57 Z M 254.6 -80 L 254.6 -80 Q 254.6 -86.9 257.1 -92.1 L 257.1 -92.1 L 257.1 -92.1 Q 259.5 -97.3 264.3 -100.2 L 264.3 -100.2 L 264.3 -100.2 Q 269 -103.1 275.8 -103.1 L 275.8 -103.1 L 275.8 -103.1 Q 279.6 -103.1 283 -102.2 L 283 -102.2 L 283 -102.2 Q 286.4 -101.3 289 -99.7 L 289 -99.7 L 288.9 -93.3 L 288.7 -93.3 L 288.7 -93.3 Q 286.2 -95.5 282.8 -96.7 L 282.8 -96.7 L 282.8 -96.7 Q 279.3 -98 275.6 -98 L 275.6 -98 L 275.6 -98 Q 268.1 -98 264.4 -93.2 L 264.4 -93.2 L 264.4 -93.2 Q 260.7 -88.3 260.7 -80 L 260.7 -80 L 260.7 -80 Q 260.7 -71.7 264.3 -66.9 L 264.3 -66.9 L 264.3 -66.9 Q 268 -62.1 275.2 -62.1 L 275.2 -62.1 L 275.2 -62.1 Q 278.3 -62.1 280.8 -62.9 L 280.8 -62.9 L 280.8 -62.9 Q 283.2 -63.7 285.1 -65.2 L 285.1 -65.2 L 285.1 -74.8 L 275.7 -74.8 L 275.7 -79.7 L 290.7 -79.7 L 290.7 -62.3 L 290.7 -62.3 Q 286.8 -59.7 283.2 -58.3 L 283.2 -58.3 L 283.2 -58.3 Q 279.7 -57 275.2 -57 L 275.2 -57 L 275.2 -57 Q 268.7 -57 264 -59.9 L 264 -59.9 L 264 -59.9 Q 259.4 -62.8 257 -68 L 257 -68 L 257 -68 Q 254.6 -73.2 254.6 -80 L 254.6 -80 Z M 330.9 -57.8 L 325.3 -57.8 L 324.4 -62.6 L 324.4 -62.6 Q 321.9 -59.8 319 -58.4 L 319 -58.4 L 319 -58.4 Q 316.1 -57 312.4 -57 L 312.4 -57 L 312.4 -57 Q 307.9 -57 305.1 -59.6 L 305.1 -59.6 L 305.1 -59.6 Q 302.3 -62.2 302.3 -66.5 L 302.3 -66.5 L 302.3 -66.5 Q 302.3 -72.1 306.7 -74.7 L 306.7 -74.7 L 306.7 -74.7 Q 311.2 -77.3 318.3 -77.3 L 318.3 -77.3 L 318.3 -77.3 Q 320.8 -77.3 323.9 -77 L 323.9 -77 L 323.9 -79.3 L 323.9 -79.3 Q 323.9 -82.8 322 -84.8 L 322 -84.8 L 322 -84.8 Q 320.1 -86.9 317.1 -86.9 L 317.1 -86.9 L 317.1 -86.9 Q 313.5 -86.9 310.6 -86 L 310.6 -86 L 310.6 -86 Q 307.7 -85 304.6 -82.9 L 304.6 -82.9 L 304.6 -88.4 L 304.6 -88.4 Q 307.6 -90.4 310.8 -91.2 L 310.8 -91.2 L 310.8 -91.2 Q 313.9 -92 317.9 -92 L 317.9 -92 L 317.9 -92 Q 323.1 -92 326.3 -88.7 L 326.3 -88.7 L 326.3 -88.7 Q 329.5 -85.4 329.5 -80.1 L 329.5 -80.1 L 329.5 -65.2 L 330.9 -57.8 Z M 313.6 -61.8 L 313.6 -61.8 Q 316.7 -61.8 319.1 -63 L 319.1 -63 L 319.1 -63 Q 321.5 -64.3 323.9 -66.8 L 323.9 -66.8 L 323.9 -73 L 318 -73 L 318 -73 Q 308.3 -73 308.3 -66.8 L 308.3 -66.8 L 308.3 -66.8 Q 308.3 -64.5 309.8 -63.1 L 309.8 -63.1 L 309.8 -63.1 Q 311.3 -61.8 313.6 -61.8 L 313.6 -61.8 Z M 341.4 -57.8 L 341.4 -106.1 L 347 -106.1 L 347 -57.8 L 341.4 -57.8 Z M 359.3 -57.8 L 359.3 -106.1 L 364.9 -106.1 L 364.9 -57.8 L 359.3 -57.8 Z M 405.1 -74.5 L 405.1 -72.6 L 381.4 -72.6 L 381.4 -72.6 Q 381.9 -67.7 384.7 -64.8 L 384.7 -64.8 L 384.7 -64.8 Q 387.5 -61.9 392.3 -61.9 L 392.3 -61.9 L 392.3 -61.9 Q 395.2 -61.9 397.9 -63.1 L 397.9 -63.1 L 397.9 -63.1 Q 400.6 -64.3 403.4 -66.6 L 403.4 -66.6 L 403.7 -66.6 L 403.7 -60.9 L 403.7 -60.9 Q 400.9 -58.9 398.1 -58 L 398.1 -58 L 398.1 -58 Q 395.4 -57 392.2 -57 L 392.2 -57 L 392.2 -57 Q 387.1 -57 383.3 -59.3 L 383.3 -59.3 L 383.3 -59.3 Q 379.6 -61.5 377.6 -65.5 L 377.6 -65.5 L 377.6 -65.5 Q 375.5 -69.5 375.5 -74.7 L 375.5 -74.7 L 375.5 -74.7 Q 375.5 -79.6 377.4 -83.6 L 377.4 -83.6 L 377.4 -83.6 Q 379.2 -87.5 382.6 -89.7 L 382.6 -89.7 L 382.6 -89.7 Q 386 -92 390.5 -92 L 390.5 -92 L 390.5 -92 Q 395.1 -92 398.4 -89.7 L 398.4 -89.7 L 398.4 -89.7 Q 401.7 -87.4 403.4 -83.5 L 403.4 -83.5 L 403.4 -83.5 Q 405.1 -79.5 405.1 -74.5 L 405.1 -74.5 Z M 390.6 -87.3 L 390.6 -87.3 Q 386.6 -87.3 384.2 -84.4 L 384.2 -84.4 L 384.2 -84.4 Q 381.9 -81.5 381.4 -77 L 381.4 -77 L 399.3 -77 L 399.3 -77 Q 398.8 -81.7 396.7 -84.5 L 396.7 -84.5 L 396.7 -84.5 Q 394.5 -87.3 390.6 -87.3 L 390.6 -87.3 Z M 430.6 -92 L 432.6 -92 L 432.6 -85.8 L 431.7 -85.8 L 431.7 -85.8 Q 428.7 -85.8 426.3 -84.7 L 426.3 -84.7 L 426.3 -84.7 Q 423.9 -83.6 422.3 -81.5 L 422.3 -81.5 L 422.3 -57.8 L 416.6 -57.8 L 416.6 -83.8 L 415.2 -91.2 L 420.8 -91.2 L 422 -85.3 L 422 -85.3 Q 424.6 -89.1 426.4 -90.5 L 426.4 -90.5 L 426.4 -90.5 Q 428.3 -92 430.6 -92 L 430.6 -92 Z M 464.4 -91.2 L 470.4 -91.2 L 451.3 -42.9 L 445.6 -42.9 L 451.3 -57.4 L 438.1 -91.2 L 443.8 -91.2 L 454.3 -63.8 L 464.4 -91.2 Z" fill="url(#editing-gradient-gradient)"></path></g></g><style>text {
  font-size: 64px;
  font-family: Arial Black;
  dominant-baseline: central;
  text-anchor: middle;
}</style></svg>